<?xml version="1.0" encoding="UTF-8"?><svg id="Layer_2" xmlns="http://www.w3.org/2000/svg" viewBox="0 0 1237.31 401.81"><defs><style>.cls-1{fill:#3d4a5d;}.cls-2{isolation:isolate;}</style></defs><g id="Layer_1-2"><g class="cls-2"><path class="cls-1" d="M593.35,65.77c-.11,23.84-14.93,42.13-35.19,48.11-.3,.72,.28,1.3,1.14,2.17,7.34,7.11,20.59,19.02,32.12,22.83,5.34,1.76,10.11,2.07,13.43,2.08,1.45,0,4.92-.41,6.94-1.27,.88,.15,1.15,1.45,.72,2.17-4.63,2.58-11.15,3.71-16.2,3.68-6.65-.03-14.88-1.51-23.39-5.45-11.82-5.54-21.33-13.97-26.64-19.2-4.32-4.35-5.61-4.65-9.66-5.39-3.75-.59-8.95-1.48-14.14-3.53-19.18-7.31-30.82-24.56-30.72-45.23,.13-28.9,21.92-50.91,51.68-50.78,33.37,.15,50.03,24.36,49.92,49.79Zm-14.46,4.41c.11-23.84-10.33-49.61-37.93-49.74-15.02-.07-34.58,10.1-34.72,41.75-.1,21.39,10.18,49.18,38.65,49.31,17.34,.08,33.88-12.85,34.01-41.32Z"/><path class="cls-1" d="M685.72,55.2c.04-8.96-.17-25.58-2.61-29.92-1.01-1.74-3.61-2.76-7.21-3.07l-3.61-.31c-.87-1.02-.57-2.89,.3-3.47,5.48,.31,10.83,.48,16.47,.51,6.07,.03,9.97-.1,15.18-.37,1.16,.73,1,2.61,.28,3.47l-3.47,.27c-3.61,.27-6.37,1.56-7.24,3.43-2.05,4.76-2.12,21.38-2.16,29.47l-.07,16.33c-.06,12.57-2.13,25.86-10.26,34.49-6.25,6.76-16.96,10.47-27.65,10.42-9.97-.05-19.93-1.97-26.99-8.07-7.63-6.39-11.19-16.96-11.11-34.15l.15-34.1c.07-15.03-.22-17.49-8.59-18.25l-3.61-.31c-.87-.58-.57-3.04,.3-3.47,7.23,.32,12.13,.49,17.91,.51,5.93,.03,10.7-.1,17.78-.35,.86,.44,1.14,2.89,.27,3.47l-3.47,.27c-8.38,.68-8.68,3.14-8.74,18.17l-.14,31.21c-.11,23.27,7.04,38.62,29.16,38.72,20.96,.09,28.97-16.34,29.07-38.31l.08-16.62Z"/><path class="cls-1" d="M763.04,81.13c-1-3.18-1.57-3.62-5.9-3.64l-21.82-.1c-3.62-.02-4.49,.41-5.51,3.44l-5.12,15.15c-2.19,6.49-3.22,10.39-3.23,11.98,0,1.73,.7,2.6,4.18,2.91l4.77,.46c1.01,.73,1,3.04-.31,3.61-3.75-.31-8.23-.33-15.02-.5-4.77-.02-9.97,.24-13.88,.37-.86-.58-1.14-2.9-.27-3.61l4.77-.41c3.47-.27,6.66-1.85,8.71-7.04,2.62-6.64,6.72-16.01,12.86-32.17l14.92-38.95c2.04-5.19,2.93-7.93,2.51-10.25,3.46-1,5.93-3.59,7.54-5.46,.86,0,1.88,.3,2.16,1.31,1.85,6.37,4.13,13.02,6.28,19.39l19.53,58.18c4.13,12.45,6,14.62,12.21,15.37l3.9,.45c1.01,.73,.7,3.04-.02,3.61-5.93-.32-10.98-.48-17.48-.51-6.94-.03-12.43,.23-16.62,.36-1.16-.58-1.28-2.9-.28-3.61l4.2-.42c3.03-.28,5.06-1.13,5.07-2.58,0-1.59-.71-4.19-1.84-7.67l-6.27-19.68Zm-28.55-12.99c-1.18,3.32-1.03,3.46,3.01,3.48l17.78,.08c4.19,.02,4.48-.56,3.2-4.46l-7.7-23.59c-1.13-3.47-2.41-7.38-3.28-9.12h-.28c-.44,.72-1.9,4.18-3.51,8.51l-9.21,25.1Z"/><path class="cls-1" d="M890.44,90.67c-.02,4.34-.1,21.53,.32,25.29-.29,.87-1.17,1.58-2.75,1.58-1.73-2.47-5.9-7.54-18.4-21.9l-33.36-38.3c-3.87-4.5-13.65-16.39-16.67-19.58h-.3c-.58,1.73-.74,5.05-.76,9.39l-.14,31.5c-.03,6.79,.03,25.58,2.46,29.92,.87,1.59,3.75,2.47,7.36,2.78l4.47,.45c.87,1.16,.72,2.89-.3,3.61-6.5-.32-11.56-.49-16.9-.51-6.08-.03-9.97,.1-15.04,.37-1.01-.73-1.14-2.75-.27-3.61l3.91-.42c3.33-.42,5.64-1.28,6.36-2.86,2.05-5.19,1.98-22.82,2.01-29.76l.19-41.76c.02-4.05-.1-7.08-3.13-10.42-2.02-2.03-5.47-3.06-8.94-3.51l-2.46-.3c-.86-.87-.85-3.04,.31-3.61,6.06,.46,13.73,.5,16.32,.51,2.31,.01,4.77-.12,6.65-.4,2.86,7.38,19.82,26.53,24.57,31.9l13.94,15.81c9.92,11.17,16.96,19.3,23.73,26.26h.3c.57-.72,.58-3.03,.6-6.07l.14-30.92c.03-6.79-.02-25.58-2.76-29.93-.86-1.31-3.17-2.18-8.94-2.93l-2.46-.3c-1-.87-.85-3.18,.31-3.61,6.65,.32,11.55,.49,17.05,.51,6.22,.03,9.97-.1,14.89-.37,1.15,.73,1.14,2.75,.27,3.61l-2.03,.28c-4.62,.7-7.52,1.85-8.11,3-2.48,5.19-2.27,23.11-2.3,29.76l-.16,34.54Z"/><path class="cls-1" d="M960.5,93.87c-.07,15.17,.21,17.34,8.58,18.1l4.63,.45c.86,.58,.55,3.18-.31,3.61-8.23-.33-13.14-.49-18.93-.52-5.78-.03-10.84,.1-20.09,.34-.86-.44-1.14-2.9,.02-3.61l5.2-.41c8.24-.69,8.98-2.85,9.05-18.02l.29-64.6c.02-4.48,.02-4.62-4.32-4.64l-7.94-.04c-6.22-.03-14.17,.22-17.8,3.53-3.49,3.16-4.95,6.34-6.54,9.94-1.17,.86-3.19,.13-3.75-1.03,2.34-6.49,4.54-15.73,5.58-21.51,.43-.29,2.31-.42,2.74,.01,.84,4.63,5.61,4.51,12.26,4.54l58.53,.26c7.8,.04,9.11-.25,11.29-4,.73-.29,2.31-.13,2.61,.45-1.62,5.92-2.69,17.62-2.27,21.95-.59,1.15-3.03,1.14-3.76,.27-.42-3.61-1.41-8.97-3.56-10.57-3.31-2.47-8.81-3.65-16.75-3.69l-10.26-.05c-4.34-.02-4.19,.13-4.21,4.89l-.29,64.31Z"/><path class="cls-1" d="M1090.27,57.03c.04-8.96-.17-25.58-2.61-29.92-1.01-1.74-3.61-2.76-7.21-3.07l-3.61-.31c-.87-1.02-.57-2.89,.3-3.47,5.48,.31,10.83,.48,16.47,.51,6.07,.03,9.97-.1,15.18-.37,1.16,.73,1,2.61,.28,3.47l-3.47,.27c-3.61,.27-6.37,1.56-7.24,3.43-2.05,4.76-2.12,21.38-2.16,29.47l-.07,16.33c-.06,12.57-2.13,25.86-10.26,34.49-6.25,6.76-16.96,10.47-27.65,10.42-9.97-.05-19.93-1.97-26.99-8.07-7.63-6.39-11.19-16.96-11.11-34.15l.15-34.1c.07-15.03-.22-17.49-8.59-18.25l-3.61-.31c-.87-.58-.57-3.04,.3-3.47,7.23,.32,12.13,.49,17.91,.51,5.93,.03,10.7-.1,17.78-.35,.86,.44,1.14,2.89,.27,3.47l-3.47,.27c-8.38,.68-8.68,3.14-8.74,18.17l-.14,31.21c-.11,23.27,7.04,38.62,29.16,38.72,20.96,.09,28.97-16.34,29.07-38.31l.08-16.62Z"/><path class="cls-1" d="M1166.74,77.9c3.29,6.81,6.44,13.47,9.88,19.84h.28c3.94-6.77,7.58-14.27,11.23-21.63l13.7-27.54c6.56-13.12,10.78-21.05,11.11-27.7,4.9,.46,7.94,.47,10.83,.48,3.61,.02,8.38-.11,12.86-.38,.86,.58,.85,3.04,.13,3.61l-3.04,.28c-9.11,.83-10.27,3.57-10.18,13.68,.23,15.32,.24,42.05,1.31,62.87,.4,7.23,.23,11.13,7.03,11.74l4.62,.45c.86,.87,.72,3.04-.3,3.61-5.93-.32-11.85-.49-17.05-.51-5.07-.02-11.57,.09-17.49,.35-1.01-.73-1.15-2.75-.28-3.61l4.19-.42c7.1-.69,7.11-3,7.15-12.25l-.17-60.26h-.28c-1.02,1.58-6.56,13.12-9.48,18.74l-12.98,25.23c-6.56,12.69-13.13,26.24-15.75,32.88-.3,.43-.87,.58-1.45,.57-.28,0-1.01-.15-1.29-.59-2.42-7.67-9.3-21.86-12.6-28.96l-12.87-27.95c-3.01-6.66-6-14.19-9.16-20.85h-.28c-.62,8.96-1.09,17.34-1.56,25.71-.47,8.81-1.11,21.67-1.17,33.96-.05,10.69,.81,13.01,6.44,13.47l5.5,.46c1.01,.87,.85,3.18-.16,3.61-4.9-.31-10.55-.48-16.04-.51-4.62-.02-9.82,.1-14.74,.37-.86-.73-1.14-2.9-.27-3.61l3.18-.42c6.07-.84,8.1-1.7,9.01-11.81,.91-9.53,1.67-17.48,2.6-31.78,.77-11.99,1.41-24.27,1.74-32.22,.33-9.1-.83-11.28-9.63-12.47l-2.31-.3c-.73-.87-.57-3.04,.6-3.61,4.34,.31,7.79,.47,11.41,.49,3.32,.02,7.22,.03,11.99-.38-.59,5.63,2.97,14.61,7.4,23.88l16.33,33.46Z"/></g><g class="cls-2"><path class="cls-1" d="M509.22,166.96c10.59-8.19,24.05-12.17,39.08-12.11,7.81,.04,18.79,1.67,25.56,3.58,1.74,.44,2.74,.74,4.05,.6,.12,3.32,.81,12.43,1.92,21.25-.72,1.01-2.88,1.14-3.89,.27-2.13-9.84-8.58-21.14-29.53-21.23-22.1-.1-40.96,13.83-41.1,43.75-.14,30.35,19.01,47.2,42.71,47.3,18.65,.08,26.93-12.02,30.29-20.53,1.02-.72,3.18-.42,3.75,.59-1.05,7.51-4.85,17.03-7.02,19.77-1.73,.28-3.48,.85-5.06,1.42-3.19,1.14-13.61,3.26-22.85,3.22-13.01-.06-25.43-2.72-35.94-9.85-11.53-8-20.43-21.19-20.34-39.83,.07-16.04,7.36-29.74,18.37-38.21Z"/><path class="cls-1" d="M643.8,219.45c-1-3.18-1.58-3.62-5.91-3.64l-21.82-.1c-3.61-.02-4.47,.41-5.5,3.44l-5.13,15.15c-2.19,6.49-3.22,10.39-3.23,11.98,0,1.73,.72,2.6,4.18,2.91l4.77,.46c1.01,.73,1,3.04-.3,3.61-3.75-.31-8.24-.33-15.02-.5-4.77-.02-9.97,.24-13.88,.37-.86-.58-1.15-2.9-.28-3.61l4.77-.41c3.47-.27,6.66-1.85,8.71-7.04,2.64-6.64,6.72-16.01,12.86-32.17l14.92-38.95c2.05-5.19,2.93-7.93,2.51-10.25,3.48-1,5.95-3.59,7.54-5.46,.86,0,1.88,.3,2.17,1.31,1.85,6.37,4.13,13.02,6.26,19.39l19.53,58.18c4.14,12.45,6.01,14.62,12.22,15.37l3.89,.45c1.01,.73,.72,3.04-.02,3.61-5.92-.32-10.97-.48-17.48-.51-6.93-.03-12.43,.23-16.62,.36-1.15-.58-1.28-2.9-.27-3.61l4.19-.42c3.04-.28,5.06-1.13,5.07-2.58,0-1.59-.7-4.19-1.84-7.67l-6.26-19.68Zm-28.56-12.99c-1.16,3.32-1.03,3.46,3.02,3.48l17.77,.08c4.19,.02,4.49-.56,3.2-4.46l-7.69-23.59c-1.15-3.47-2.43-7.38-3.28-9.12h-.28c-.45,.72-1.9,4.18-3.51,8.51l-9.22,25.1Z"/><path class="cls-1" d="M705.29,231.58c-.07,15.17,.21,17.05,9.46,18.11l3.89,.45c.87,.73,.57,3.18-.3,3.61-8.24-.33-13.01-.49-18.78-.52-6.08-.03-11.28,.09-17.63,.35-.86-.44-1.15-2.75-.28-3.61l3.04-.42c8.38-1.12,8.69-2.85,8.76-18.02l.24-53.32c.06-12.28-.23-14.74-6.73-15.49l-5.2-.6c-1.01-.87-.85-3.04,.3-3.61,7.67-.98,16.62-1.08,28.62-1.03,12,.05,20.95,1.68,27.73,5.91,6.63,4.22,11.5,11.76,11.45,21.73-.06,13.29-8.32,19.91-14.55,22.91-6.38,3.01-14.04,4.27-19.96,4.25-1.01-.44-1-2.61-.14-2.89,15.62-2.82,21.29-11.61,21.35-24.18,.06-14.02-8.12-23.16-23.16-23.23-7.66-.03-7.8,.54-7.82,5.17l-.29,64.45Z"/><path class="cls-1" d="M771.26,180.14c.07-15.32-.22-17.78-8.74-18.54l-3.61-.31c-.86-.58-.57-3.18,.3-3.61,7.23,.32,12.14,.49,18.21,.52,5.78,.03,10.69-.1,17.92-.35,.86,.44,1.15,3.04,.28,3.61l-3.62,.27c-8.53,.68-8.82,3.14-8.89,18.46l-.23,51.44c-.07,15.32,.21,17.34,8.73,18.39l3.62,.45c.86,.58,.55,3.18-.31,3.61-7.23-.32-12.13-.49-17.91-.51-6.07-.03-10.99,.1-18.21,.35-.86-.44-1.14-2.75-.27-3.61l3.61-.42c8.53-.97,8.84-3,8.91-18.31l.23-51.44Z"/><path class="cls-1" d="M854.54,232.25c-.07,15.17,.22,17.34,8.59,18.1l4.62,.45c.86,.58,.57,3.18-.3,3.61-8.24-.33-13.16-.49-18.93-.52s-10.85,.1-20.09,.34c-.86-.44-1.15-2.9,.02-3.61l5.2-.41c8.24-.69,8.97-2.85,9.04-18.02l.29-64.6c.02-4.48,.02-4.62-4.32-4.64l-7.94-.04c-6.22-.03-14.16,.22-17.8,3.53-3.47,3.16-4.93,6.34-6.54,9.94-1.15,.86-3.18,.13-3.75-1.03,2.34-6.49,4.56-15.73,5.6-21.51,.43-.29,2.31-.42,2.74,.01,.84,4.63,5.61,4.51,12.26,4.54l58.52,.26c7.81,.04,9.11-.25,11.3-4,.72-.29,2.31-.13,2.59,.45-1.61,5.92-2.67,17.62-2.26,21.95-.59,1.15-3.04,1.14-3.76,.27-.42-3.61-1.41-8.97-3.57-10.57-3.31-2.47-8.79-3.65-16.74-3.69l-10.27-.05c-4.34-.02-4.19,.13-4.21,4.89l-.29,64.31Z"/><path class="cls-1" d="M946.2,220.82c-1-3.18-1.58-3.62-5.91-3.64l-21.82-.1c-3.61-.02-4.47,.41-5.5,3.44l-5.13,15.15c-2.19,6.49-3.22,10.39-3.23,11.98,0,1.73,.72,2.6,4.18,2.91l4.77,.46c1.01,.73,1,3.04-.3,3.61-3.75-.31-8.24-.33-15.02-.5-4.77-.02-9.97,.24-13.88,.37-.86-.58-1.15-2.9-.28-3.61l4.77-.41c3.47-.27,6.66-1.85,8.71-7.04,2.64-6.64,6.72-16.01,12.86-32.17l14.92-38.95c2.05-5.19,2.93-7.93,2.51-10.25,3.48-1,5.95-3.59,7.54-5.46,.86,0,1.88,.3,2.17,1.31,1.85,6.37,4.13,13.02,6.26,19.39l19.53,58.18c4.14,12.45,6.01,14.62,12.22,15.37l3.89,.45c1.01,.73,.72,3.04-.02,3.61-5.92-.32-10.97-.48-17.48-.51-6.93-.03-12.43,.23-16.62,.36-1.15-.58-1.28-2.9-.27-3.61l4.19-.42c3.04-.28,5.06-1.13,5.07-2.58,0-1.59-.7-4.19-1.84-7.67l-6.26-19.68Zm-28.56-12.99c-1.16,3.32-1.03,3.46,3.02,3.48l17.77,.08c4.19,.02,4.49-.56,3.2-4.46l-7.69-23.59c-1.15-3.47-2.43-7.38-3.28-9.12h-.28c-.45,.72-1.9,4.18-3.51,8.51l-9.22,25.1Z"/><path class="cls-1" d="M996.07,180.87c.07-15.17-.22-17.49-9.31-18.25l-3.62-.31c-.86-.58-.57-3.18,.31-3.61,8.08,.33,13,.49,18.78,.52,5.63,.03,10.55-.1,17.77-.35,.88,.44,1.15,3.04,.28,3.61l-3.47,.27c-8.53,.68-8.82,3-8.89,18.17l-.23,50.29c-.04,9.1,.37,12.86,2.96,15.62,1.59,1.6,4.32,3.34,15.74,3.39,12.28,.06,15.32-.51,17.64-1.8,2.9-1.72,6.68-6.91,9.6-14.26,.87-.72,3.61-.13,3.6,.88,0,1.59-4.11,16.31-6.16,20.2-7.36-.32-21.09-.53-35.98-.6l-13.29-.06c-6.07-.03-10.7,.1-18.78,.35-.88-.44-1.15-2.75-.28-3.61l4.34-.41c8.38-.83,8.69-2.85,8.76-18.02l.24-52.02Z"/></g><g class="cls-2"><path class="cls-1" d="M577.36,374.91c-.03,5.78,.82,9.25,3.41,10.28,.44,.43,.44,1.3-.14,1.73-1.74,0-4.34,.56-7.09,1.27-7.67,1.99-18.08,3.68-25.89,3.64-17.19-.08-32.92-4.92-44-16.24-8.63-8.71-13.2-20.15-13.15-32.86,.06-12.28,4.16-24.69,13.17-34.19,9.72-10.07,24.06-16.8,45.88-16.7,8.24,.04,15.89,1.66,18.35,2.25,2.74,.59,7.21,1.62,8.95,1.34-.02,4.77,.81,12.29,2.07,20.96-.44,1.15-3.05,1.29-3.91,.41-3.97-15.62-14.78-20.59-29.52-20.65-28.04-.13-40.41,19.76-40.51,41.44-.13,27.75,14.08,49.63,43.12,49.76,8.96,.04,14.32-1.81,15.92-4.26,.72-1.01,1.46-3.61,1.48-8.23l.03-5.78c.05-12.14-.37-13.01-9.33-14.06l-6.36-.75c-1.16-.58-1-3.18,.02-3.61,4.19,.31,12.13,.49,20.66,.53,5.65,.03,10.55-.1,15.32-.36,1.01,.58,1.15,2.75,.13,3.61l-2.31,.28c-6.07,.7-6.24,4.74-6.27,12.11l-.04,8.09Z"/><path class="cls-1" d="M610.41,316.25c.06-13.73-.36-16.19-6.27-16.94l-4.63-.6c-1-.73-.99-3.04,.16-3.61,8.1-.69,18.07-1.08,32.23-1.01,8.96,.04,17.48,.8,24.11,4.44,6.93,3.64,11.95,10.17,11.91,20.29-.06,13.73-10.93,21.19-18.17,24.05-.72,.86-.01,2.31,.71,3.47,11.47,18.69,19.08,30.29,28.86,38.57,2.45,2.18,6.06,3.78,9.95,4.09,.73,.29,.86,1.45,.14,2.02-1.3,.43-3.61,.71-6.37,.69-12.28-.06-19.63-3.7-29.83-18.34-3.73-5.36-9.61-15.36-14.06-21.88-2.15-3.19-4.45-4.64-10.23-4.67-6.5-.03-6.8,.11-6.81,3.15l-.08,18.21c-.07,15.17,.22,16.91,8.59,18.1l3.04,.45c.86,.73,.55,3.18-.31,3.61-6.5-.32-11.41-.49-17.2-.51-6.07-.03-11.27,.09-18.05,.35-.88-.44-1.15-2.61-.28-3.61l3.62-.42c8.38-.97,8.67-2.85,8.74-18.02l.23-51.88Zm11.76,20.72c-.01,2.6-.02,4.19,.41,4.77,.43,.43,2.6,.73,9.97,.77,5.2,.02,10.7-.53,14.91-3.69,3.92-3.02,7.26-8.06,7.31-17.89,.05-11.42-6.98-22.29-23.03-22.36-8.96-.04-9.39,.54-9.41,4.58l-.15,33.82Z"/><path class="cls-1" d="M686.42,343.47c.13-28.9,21.92-50.91,51.68-50.78,33.37,.15,50.03,24.36,49.92,49.79-.13,29.19-22.48,50.33-50.37,50.21-32.09-.15-51.35-23.21-51.23-49.22Zm87.13,3.43c.11-23.84-10.33-49.61-37.93-49.74-15.02-.07-34.58,10.1-34.72,41.75-.1,21.39,10.18,49.18,38.65,49.31,17.34,.08,33.88-12.85,34.01-41.32Z"/><path class="cls-1" d="M882.12,331.92c.04-8.96-.17-25.58-2.61-29.92-1.01-1.74-3.6-2.76-7.21-3.07l-3.61-.31c-.86-1.02-.57-2.89,.3-3.47,5.5,.31,10.85,.48,16.48,.51,6.07,.03,9.97-.1,15.18-.37,1.15,.73,1,2.61,.27,3.47l-3.47,.27c-3.61,.27-6.36,1.56-7.23,3.43-2.05,4.76-2.12,21.38-2.16,29.47l-.07,16.33c-.06,12.57-2.14,25.86-10.28,34.49-6.25,6.76-16.95,10.47-27.65,10.42-9.97-.05-19.93-1.97-26.99-8.07-7.62-6.39-11.19-16.96-11.11-34.15l.15-34.1c.07-15.03-.21-17.49-8.59-18.25l-3.61-.31c-.86-.58-.57-3.04,.3-3.47,7.23,.32,12.14,.49,17.93,.52,5.92,.03,10.69-.1,17.77-.35,.86,.44,1.15,2.89,.28,3.47l-3.47,.27c-8.38,.68-8.69,3.14-8.76,18.17l-.14,31.21c-.11,23.27,7.05,38.62,29.16,38.72,20.96,.09,28.97-16.34,29.07-38.31l.08-16.62Z"/><path class="cls-1" d="M932.66,369.58c-.07,15.17,.21,17.05,9.46,18.11l3.89,.45c.87,.73,.57,3.18-.3,3.61-8.24-.33-13.01-.49-18.78-.52-6.08-.03-11.28,.09-17.63,.35-.86-.44-1.15-2.75-.28-3.61l3.04-.42c8.38-1.12,8.69-2.85,8.76-18.02l.24-53.32c.06-12.28-.23-14.74-6.73-15.49l-5.2-.6c-1.01-.87-.85-3.04,.3-3.61,7.67-.98,16.62-1.08,28.62-1.03s20.95,1.68,27.73,5.91c6.63,4.22,11.5,11.76,11.45,21.73-.06,13.29-8.32,19.91-14.55,22.91-6.38,3.01-14.04,4.27-19.96,4.25-1.01-.44-1-2.61-.14-2.89,15.62-2.82,21.29-11.61,21.35-24.18,.06-14.02-8.12-23.16-23.16-23.23-7.66-.03-7.8,.54-7.82,5.17l-.29,64.45Z"/></g><path class="cls-1" d="M436.23,399.46c-29.54,3.99-67.76-4.7-107.37-42.11,42.73-36.56,70.26-92.79,70.54-156.01C399.9,90.62,316.72,.47,213.6,0c-35.99-.16-69.61,10.63-98.18,29.43C58.71-6.34,6.8,2.15,0,7.85,38.31,.64,71.34,16.47,98.69,41.85,54.76,78.34,26.29,135.38,26,199.65c-.5,110.74,82.68,200.9,185.8,201.36,37.2,.17,71.89-11.42,101.07-31.44,33.98,23.93,75.12,38.13,123.36,29.88ZM213.05,11.77c81.12,.37,146.48,85.45,146.01,190.03-.25,54.5-18.34,103.51-47.05,137.92-29.06-33.41-58.28-83.2-84.86-155.8-26.06-71.07-60.23-115.14-94.12-142,23.06-19.18,50.54-30.28,80.02-30.15Zm-1.71,378.75c-81.11-.37-146.45-85.45-145.98-190.05,.25-56.33,19.55-106.79,49.97-141.34,50.96,58.85,78.01,145.63,78.01,145.63,0,0,34.49,93.45,102.61,151.66-23.98,21.61-53.16,34.24-84.61,34.1Z"/></g></svg>